<mxfile host="app.diagrams.net" modified="2020-10-27T11:28:11.305Z" agent="5.0 (Windows NT 10.0; Win64; x64) AppleWebKit/537.36 (KHTML, like Gecko) Chrome/86.0.4240.111 Safari/537.36" etag="ygzjGhF_ec4DqDzoEvJG" version="13.8.3" type="github">
  <diagram id="bF7WofOZELHusc3p6kdP" name="Page-1">
    <mxGraphModel dx="1122" dy="762" grid="1" gridSize="10" guides="1" tooltips="1" connect="1" arrows="1" fold="1" page="1" pageScale="1" pageWidth="827" pageHeight="1169" math="0" shadow="0">
      <root>
        <mxCell id="0" />
        <mxCell id="1" parent="0" />
        <mxCell id="8RDtpiy4XNeRuSiZVMDt-1" value="" style="ellipse;whiteSpace=wrap;html=1;aspect=fixed;strokeColor=#FF0000;" vertex="1" parent="1">
          <mxGeometry x="120" y="240" width="80" height="80" as="geometry" />
        </mxCell>
        <mxCell id="8RDtpiy4XNeRuSiZVMDt-4" value="" style="ellipse;whiteSpace=wrap;html=1;aspect=fixed;strokeColor=#0000CC;" vertex="1" parent="1">
          <mxGeometry x="280" y="160" width="80" height="80" as="geometry" />
        </mxCell>
        <mxCell id="8RDtpiy4XNeRuSiZVMDt-9" value="" style="ellipse;whiteSpace=wrap;html=1;aspect=fixed;strokeColor=#006633;" vertex="1" parent="1">
          <mxGeometry x="460" y="290" width="80" height="80" as="geometry" />
        </mxCell>
        <mxCell id="8RDtpiy4XNeRuSiZVMDt-18" value="" style="ellipse;whiteSpace=wrap;html=1;aspect=fixed;strokeColor=#FF0000;" vertex="1" parent="1">
          <mxGeometry x="120" y="360" width="80" height="80" as="geometry" />
        </mxCell>
        <mxCell id="8RDtpiy4XNeRuSiZVMDt-19" value="" style="ellipse;whiteSpace=wrap;html=1;aspect=fixed;strokeColor=#FF0000;" vertex="1" parent="1">
          <mxGeometry x="120" y="460" width="80" height="80" as="geometry" />
        </mxCell>
        <mxCell id="8RDtpiy4XNeRuSiZVMDt-20" value="" style="ellipse;whiteSpace=wrap;html=1;aspect=fixed;strokeColor=#0000CC;" vertex="1" parent="1">
          <mxGeometry x="280" y="290" width="80" height="80" as="geometry" />
        </mxCell>
        <mxCell id="8RDtpiy4XNeRuSiZVMDt-21" value="" style="ellipse;whiteSpace=wrap;html=1;aspect=fixed;strokeColor=#0000CC;" vertex="1" parent="1">
          <mxGeometry x="280" y="400" width="80" height="80" as="geometry" />
        </mxCell>
        <mxCell id="8RDtpiy4XNeRuSiZVMDt-22" value="" style="ellipse;whiteSpace=wrap;html=1;aspect=fixed;strokeColor=#0000CC;" vertex="1" parent="1">
          <mxGeometry x="280" y="530" width="80" height="80" as="geometry" />
        </mxCell>
        <mxCell id="8RDtpiy4XNeRuSiZVMDt-23" value="" style="ellipse;whiteSpace=wrap;html=1;aspect=fixed;strokeColor=#006633;" vertex="1" parent="1">
          <mxGeometry x="460" y="400" width="80" height="80" as="geometry" />
        </mxCell>
        <mxCell id="8RDtpiy4XNeRuSiZVMDt-35" value="" style="endArrow=none;html=1;entryX=0;entryY=0.5;entryDx=0;entryDy=0;exitX=1;exitY=0.5;exitDx=0;exitDy=0;" edge="1" parent="1" source="8RDtpiy4XNeRuSiZVMDt-1" target="8RDtpiy4XNeRuSiZVMDt-4">
          <mxGeometry width="50" height="50" relative="1" as="geometry">
            <mxPoint x="160" y="290" as="sourcePoint" />
            <mxPoint x="210" y="240" as="targetPoint" />
          </mxGeometry>
        </mxCell>
        <mxCell id="8RDtpiy4XNeRuSiZVMDt-36" value="" style="endArrow=none;html=1;exitX=0;exitY=0.5;exitDx=0;exitDy=0;entryX=1;entryY=0.5;entryDx=0;entryDy=0;" edge="1" parent="1" source="8RDtpiy4XNeRuSiZVMDt-20" target="8RDtpiy4XNeRuSiZVMDt-1">
          <mxGeometry width="50" height="50" relative="1" as="geometry">
            <mxPoint x="110" y="330" as="sourcePoint" />
            <mxPoint x="210" y="300" as="targetPoint" />
          </mxGeometry>
        </mxCell>
        <mxCell id="8RDtpiy4XNeRuSiZVMDt-37" value="" style="endArrow=none;html=1;exitX=0;exitY=0.5;exitDx=0;exitDy=0;entryX=1;entryY=0.5;entryDx=0;entryDy=0;" edge="1" parent="1" source="8RDtpiy4XNeRuSiZVMDt-21" target="8RDtpiy4XNeRuSiZVMDt-1">
          <mxGeometry width="50" height="50" relative="1" as="geometry">
            <mxPoint x="290" y="370" as="sourcePoint" />
            <mxPoint x="170" y="290" as="targetPoint" />
          </mxGeometry>
        </mxCell>
        <mxCell id="8RDtpiy4XNeRuSiZVMDt-38" value="" style="endArrow=none;html=1;exitX=0;exitY=0.5;exitDx=0;exitDy=0;entryX=1;entryY=0.5;entryDx=0;entryDy=0;" edge="1" parent="1" source="8RDtpiy4XNeRuSiZVMDt-22" target="8RDtpiy4XNeRuSiZVMDt-1">
          <mxGeometry width="50" height="50" relative="1" as="geometry">
            <mxPoint x="290.48" y="497.03999999999996" as="sourcePoint" />
            <mxPoint x="170" y="290" as="targetPoint" />
          </mxGeometry>
        </mxCell>
        <mxCell id="8RDtpiy4XNeRuSiZVMDt-39" value="" style="endArrow=none;html=1;exitX=0;exitY=0.5;exitDx=0;exitDy=0;entryX=1;entryY=0.5;entryDx=0;entryDy=0;" edge="1" parent="1" source="8RDtpiy4XNeRuSiZVMDt-4" target="8RDtpiy4XNeRuSiZVMDt-18">
          <mxGeometry width="50" height="50" relative="1" as="geometry">
            <mxPoint x="300.48" y="507.03999999999996" as="sourcePoint" />
            <mxPoint x="180" y="300" as="targetPoint" />
          </mxGeometry>
        </mxCell>
        <mxCell id="8RDtpiy4XNeRuSiZVMDt-40" value="" style="endArrow=none;html=1;exitX=0;exitY=0.5;exitDx=0;exitDy=0;entryX=1;entryY=0.5;entryDx=0;entryDy=0;" edge="1" parent="1" source="8RDtpiy4XNeRuSiZVMDt-20" target="8RDtpiy4XNeRuSiZVMDt-18">
          <mxGeometry width="50" height="50" relative="1" as="geometry">
            <mxPoint x="310.48" y="517.04" as="sourcePoint" />
            <mxPoint x="190" y="310" as="targetPoint" />
          </mxGeometry>
        </mxCell>
        <mxCell id="8RDtpiy4XNeRuSiZVMDt-41" value="" style="endArrow=none;html=1;entryX=1;entryY=0.5;entryDx=0;entryDy=0;exitX=0;exitY=0.5;exitDx=0;exitDy=0;" edge="1" parent="1" source="8RDtpiy4XNeRuSiZVMDt-21" target="8RDtpiy4XNeRuSiZVMDt-18">
          <mxGeometry width="50" height="50" relative="1" as="geometry">
            <mxPoint x="280" y="490" as="sourcePoint" />
            <mxPoint x="200" y="320" as="targetPoint" />
          </mxGeometry>
        </mxCell>
        <mxCell id="8RDtpiy4XNeRuSiZVMDt-42" value="" style="endArrow=none;html=1;exitX=0;exitY=0.5;exitDx=0;exitDy=0;entryX=1;entryY=0.5;entryDx=0;entryDy=0;" edge="1" parent="1" source="8RDtpiy4XNeRuSiZVMDt-22" target="8RDtpiy4XNeRuSiZVMDt-18">
          <mxGeometry width="50" height="50" relative="1" as="geometry">
            <mxPoint x="330.48" y="537.04" as="sourcePoint" />
            <mxPoint x="210" y="330" as="targetPoint" />
          </mxGeometry>
        </mxCell>
        <mxCell id="8RDtpiy4XNeRuSiZVMDt-43" value="" style="endArrow=none;html=1;exitX=0;exitY=0.5;exitDx=0;exitDy=0;entryX=1;entryY=0.5;entryDx=0;entryDy=0;" edge="1" parent="1" source="8RDtpiy4XNeRuSiZVMDt-4" target="8RDtpiy4XNeRuSiZVMDt-19">
          <mxGeometry width="50" height="50" relative="1" as="geometry">
            <mxPoint x="340.48" y="547.04" as="sourcePoint" />
            <mxPoint x="220" y="340" as="targetPoint" />
          </mxGeometry>
        </mxCell>
        <mxCell id="8RDtpiy4XNeRuSiZVMDt-44" value="" style="endArrow=none;html=1;exitX=0;exitY=0.5;exitDx=0;exitDy=0;entryX=1;entryY=0.5;entryDx=0;entryDy=0;" edge="1" parent="1" source="8RDtpiy4XNeRuSiZVMDt-20" target="8RDtpiy4XNeRuSiZVMDt-19">
          <mxGeometry width="50" height="50" relative="1" as="geometry">
            <mxPoint x="350.48" y="557.04" as="sourcePoint" />
            <mxPoint x="230" y="350" as="targetPoint" />
          </mxGeometry>
        </mxCell>
        <mxCell id="8RDtpiy4XNeRuSiZVMDt-45" value="" style="endArrow=none;html=1;exitX=0;exitY=0.5;exitDx=0;exitDy=0;entryX=1;entryY=0.5;entryDx=0;entryDy=0;" edge="1" parent="1" source="8RDtpiy4XNeRuSiZVMDt-21" target="8RDtpiy4XNeRuSiZVMDt-19">
          <mxGeometry width="50" height="50" relative="1" as="geometry">
            <mxPoint x="360.48" y="567.04" as="sourcePoint" />
            <mxPoint x="240" y="360" as="targetPoint" />
          </mxGeometry>
        </mxCell>
        <mxCell id="8RDtpiy4XNeRuSiZVMDt-46" value="" style="endArrow=none;html=1;exitX=1;exitY=0.5;exitDx=0;exitDy=0;entryX=0;entryY=0.5;entryDx=0;entryDy=0;" edge="1" parent="1" source="8RDtpiy4XNeRuSiZVMDt-4" target="8RDtpiy4XNeRuSiZVMDt-9">
          <mxGeometry width="50" height="50" relative="1" as="geometry">
            <mxPoint x="370" y="220" as="sourcePoint" />
            <mxPoint x="750" y="140" as="targetPoint" />
          </mxGeometry>
        </mxCell>
        <mxCell id="8RDtpiy4XNeRuSiZVMDt-47" value="" style="endArrow=none;html=1;exitX=1;exitY=0.5;exitDx=0;exitDy=0;entryX=0;entryY=0.5;entryDx=0;entryDy=0;" edge="1" parent="1" source="8RDtpiy4XNeRuSiZVMDt-4" target="8RDtpiy4XNeRuSiZVMDt-23">
          <mxGeometry width="50" height="50" relative="1" as="geometry">
            <mxPoint x="370" y="250" as="sourcePoint" />
            <mxPoint x="490" y="370" as="targetPoint" />
          </mxGeometry>
        </mxCell>
        <mxCell id="8RDtpiy4XNeRuSiZVMDt-49" value="" style="endArrow=none;html=1;exitX=1;exitY=0.5;exitDx=0;exitDy=0;entryX=0;entryY=0.5;entryDx=0;entryDy=0;" edge="1" parent="1" source="8RDtpiy4XNeRuSiZVMDt-20" target="8RDtpiy4XNeRuSiZVMDt-9">
          <mxGeometry width="50" height="50" relative="1" as="geometry">
            <mxPoint x="390" y="270" as="sourcePoint" />
            <mxPoint x="510" y="390" as="targetPoint" />
          </mxGeometry>
        </mxCell>
        <mxCell id="8RDtpiy4XNeRuSiZVMDt-50" value="" style="endArrow=none;html=1;exitX=1;exitY=0.5;exitDx=0;exitDy=0;entryX=0;entryY=0.5;entryDx=0;entryDy=0;" edge="1" parent="1" source="8RDtpiy4XNeRuSiZVMDt-20" target="8RDtpiy4XNeRuSiZVMDt-23">
          <mxGeometry width="50" height="50" relative="1" as="geometry">
            <mxPoint x="400" y="280" as="sourcePoint" />
            <mxPoint x="520" y="400" as="targetPoint" />
          </mxGeometry>
        </mxCell>
        <mxCell id="8RDtpiy4XNeRuSiZVMDt-51" value="" style="endArrow=none;html=1;exitX=1;exitY=0.5;exitDx=0;exitDy=0;entryX=0;entryY=0.5;entryDx=0;entryDy=0;" edge="1" parent="1" source="8RDtpiy4XNeRuSiZVMDt-21" target="8RDtpiy4XNeRuSiZVMDt-9">
          <mxGeometry width="50" height="50" relative="1" as="geometry">
            <mxPoint x="410" y="290" as="sourcePoint" />
            <mxPoint x="530" y="410" as="targetPoint" />
          </mxGeometry>
        </mxCell>
        <mxCell id="8RDtpiy4XNeRuSiZVMDt-52" value="" style="endArrow=none;html=1;exitX=1;exitY=0.5;exitDx=0;exitDy=0;entryX=0;entryY=0.5;entryDx=0;entryDy=0;" edge="1" parent="1" source="8RDtpiy4XNeRuSiZVMDt-21" target="8RDtpiy4XNeRuSiZVMDt-23">
          <mxGeometry width="50" height="50" relative="1" as="geometry">
            <mxPoint x="420" y="300" as="sourcePoint" />
            <mxPoint x="540" y="420" as="targetPoint" />
          </mxGeometry>
        </mxCell>
        <mxCell id="8RDtpiy4XNeRuSiZVMDt-53" value="" style="endArrow=none;html=1;exitX=1;exitY=0.5;exitDx=0;exitDy=0;entryX=0;entryY=0.5;entryDx=0;entryDy=0;" edge="1" parent="1" source="8RDtpiy4XNeRuSiZVMDt-22" target="8RDtpiy4XNeRuSiZVMDt-23">
          <mxGeometry width="50" height="50" relative="1" as="geometry">
            <mxPoint x="430" y="310" as="sourcePoint" />
            <mxPoint x="550" y="430" as="targetPoint" />
          </mxGeometry>
        </mxCell>
        <mxCell id="8RDtpiy4XNeRuSiZVMDt-54" value="" style="endArrow=none;html=1;exitX=1;exitY=0.5;exitDx=0;exitDy=0;entryX=0;entryY=0.5;entryDx=0;entryDy=0;" edge="1" parent="1" source="8RDtpiy4XNeRuSiZVMDt-22" target="8RDtpiy4XNeRuSiZVMDt-9">
          <mxGeometry width="50" height="50" relative="1" as="geometry">
            <mxPoint x="440" y="320" as="sourcePoint" />
            <mxPoint x="560" y="440" as="targetPoint" />
          </mxGeometry>
        </mxCell>
        <mxCell id="8RDtpiy4XNeRuSiZVMDt-55" value="" style="endArrow=none;html=1;exitX=1;exitY=0.5;exitDx=0;exitDy=0;entryX=0;entryY=0.5;entryDx=0;entryDy=0;" edge="1" parent="1" source="8RDtpiy4XNeRuSiZVMDt-19" target="8RDtpiy4XNeRuSiZVMDt-22">
          <mxGeometry width="50" height="50" relative="1" as="geometry">
            <mxPoint x="450" y="330" as="sourcePoint" />
            <mxPoint x="570" y="450" as="targetPoint" />
          </mxGeometry>
        </mxCell>
        <mxCell id="8RDtpiy4XNeRuSiZVMDt-77" value="" style="ellipse;whiteSpace=wrap;html=1;aspect=fixed;strokeColor=#FF0000;direction=west;" vertex="1" parent="1">
          <mxGeometry x="800" y="240" width="80" height="80" as="geometry" />
        </mxCell>
        <mxCell id="8RDtpiy4XNeRuSiZVMDt-78" value="" style="ellipse;whiteSpace=wrap;html=1;aspect=fixed;strokeColor=#0000CC;direction=west;" vertex="1" parent="1">
          <mxGeometry x="640" y="160" width="80" height="80" as="geometry" />
        </mxCell>
        <mxCell id="8RDtpiy4XNeRuSiZVMDt-79" value="" style="ellipse;whiteSpace=wrap;html=1;aspect=fixed;strokeColor=#FF0000;direction=west;" vertex="1" parent="1">
          <mxGeometry x="800" y="360" width="80" height="80" as="geometry" />
        </mxCell>
        <mxCell id="8RDtpiy4XNeRuSiZVMDt-80" value="" style="ellipse;whiteSpace=wrap;html=1;aspect=fixed;strokeColor=#FF0000;direction=west;" vertex="1" parent="1">
          <mxGeometry x="800" y="470" width="80" height="80" as="geometry" />
        </mxCell>
        <mxCell id="8RDtpiy4XNeRuSiZVMDt-81" value="" style="ellipse;whiteSpace=wrap;html=1;aspect=fixed;strokeColor=#0000CC;direction=west;" vertex="1" parent="1">
          <mxGeometry x="640" y="290" width="80" height="80" as="geometry" />
        </mxCell>
        <mxCell id="8RDtpiy4XNeRuSiZVMDt-82" value="" style="ellipse;whiteSpace=wrap;html=1;aspect=fixed;strokeColor=#0000CC;direction=west;" vertex="1" parent="1">
          <mxGeometry x="650" y="400" width="80" height="80" as="geometry" />
        </mxCell>
        <mxCell id="8RDtpiy4XNeRuSiZVMDt-83" value="" style="ellipse;whiteSpace=wrap;html=1;aspect=fixed;strokeColor=#0000CC;direction=west;" vertex="1" parent="1">
          <mxGeometry x="650" y="530" width="80" height="80" as="geometry" />
        </mxCell>
        <mxCell id="8RDtpiy4XNeRuSiZVMDt-84" value="" style="endArrow=none;html=1;entryX=0;entryY=0.5;entryDx=0;entryDy=0;exitX=1;exitY=0.5;exitDx=0;exitDy=0;" edge="1" parent="1" source="8RDtpiy4XNeRuSiZVMDt-77" target="8RDtpiy4XNeRuSiZVMDt-78">
          <mxGeometry width="50" height="50" relative="1" as="geometry">
            <mxPoint x="920" y="260" as="sourcePoint" />
            <mxPoint x="970" y="210" as="targetPoint" />
          </mxGeometry>
        </mxCell>
        <mxCell id="8RDtpiy4XNeRuSiZVMDt-85" value="" style="endArrow=none;html=1;exitX=0;exitY=0.5;exitDx=0;exitDy=0;entryX=1;entryY=0.5;entryDx=0;entryDy=0;" edge="1" parent="1" source="8RDtpiy4XNeRuSiZVMDt-81" target="8RDtpiy4XNeRuSiZVMDt-77">
          <mxGeometry width="50" height="50" relative="1" as="geometry">
            <mxPoint x="870" y="300" as="sourcePoint" />
            <mxPoint x="970" y="270" as="targetPoint" />
          </mxGeometry>
        </mxCell>
        <mxCell id="8RDtpiy4XNeRuSiZVMDt-86" value="" style="endArrow=none;html=1;exitX=0;exitY=0.5;exitDx=0;exitDy=0;entryX=1;entryY=0.5;entryDx=0;entryDy=0;" edge="1" parent="1" source="8RDtpiy4XNeRuSiZVMDt-82" target="8RDtpiy4XNeRuSiZVMDt-77">
          <mxGeometry width="50" height="50" relative="1" as="geometry">
            <mxPoint x="1050" y="340" as="sourcePoint" />
            <mxPoint x="930" y="260" as="targetPoint" />
          </mxGeometry>
        </mxCell>
        <mxCell id="8RDtpiy4XNeRuSiZVMDt-87" value="" style="endArrow=none;html=1;exitX=0;exitY=0.5;exitDx=0;exitDy=0;entryX=1;entryY=0.5;entryDx=0;entryDy=0;" edge="1" parent="1" source="8RDtpiy4XNeRuSiZVMDt-83" target="8RDtpiy4XNeRuSiZVMDt-77">
          <mxGeometry width="50" height="50" relative="1" as="geometry">
            <mxPoint x="1050.48" y="467.03999999999996" as="sourcePoint" />
            <mxPoint x="930" y="260" as="targetPoint" />
          </mxGeometry>
        </mxCell>
        <mxCell id="8RDtpiy4XNeRuSiZVMDt-88" value="" style="endArrow=none;html=1;exitX=0;exitY=0.5;exitDx=0;exitDy=0;entryX=1;entryY=0.5;entryDx=0;entryDy=0;" edge="1" parent="1" source="8RDtpiy4XNeRuSiZVMDt-78" target="8RDtpiy4XNeRuSiZVMDt-79">
          <mxGeometry width="50" height="50" relative="1" as="geometry">
            <mxPoint x="1060.48" y="477.03999999999996" as="sourcePoint" />
            <mxPoint x="940" y="270" as="targetPoint" />
          </mxGeometry>
        </mxCell>
        <mxCell id="8RDtpiy4XNeRuSiZVMDt-89" value="" style="endArrow=none;html=1;exitX=0;exitY=0.5;exitDx=0;exitDy=0;entryX=1;entryY=0.5;entryDx=0;entryDy=0;" edge="1" parent="1" source="8RDtpiy4XNeRuSiZVMDt-81" target="8RDtpiy4XNeRuSiZVMDt-79">
          <mxGeometry width="50" height="50" relative="1" as="geometry">
            <mxPoint x="1070.48" y="487.03999999999996" as="sourcePoint" />
            <mxPoint x="950" y="280" as="targetPoint" />
          </mxGeometry>
        </mxCell>
        <mxCell id="8RDtpiy4XNeRuSiZVMDt-90" value="" style="endArrow=none;html=1;entryX=1;entryY=0.5;entryDx=0;entryDy=0;exitX=0;exitY=0.5;exitDx=0;exitDy=0;" edge="1" parent="1" source="8RDtpiy4XNeRuSiZVMDt-82" target="8RDtpiy4XNeRuSiZVMDt-79">
          <mxGeometry width="50" height="50" relative="1" as="geometry">
            <mxPoint x="1040" y="460" as="sourcePoint" />
            <mxPoint x="960" y="290" as="targetPoint" />
          </mxGeometry>
        </mxCell>
        <mxCell id="8RDtpiy4XNeRuSiZVMDt-91" value="" style="endArrow=none;html=1;exitX=0;exitY=0.5;exitDx=0;exitDy=0;entryX=1;entryY=0.5;entryDx=0;entryDy=0;" edge="1" parent="1" source="8RDtpiy4XNeRuSiZVMDt-83" target="8RDtpiy4XNeRuSiZVMDt-79">
          <mxGeometry width="50" height="50" relative="1" as="geometry">
            <mxPoint x="1090.48" y="507.03999999999996" as="sourcePoint" />
            <mxPoint x="970" y="300" as="targetPoint" />
          </mxGeometry>
        </mxCell>
        <mxCell id="8RDtpiy4XNeRuSiZVMDt-92" value="" style="endArrow=none;html=1;exitX=0;exitY=0.5;exitDx=0;exitDy=0;entryX=1;entryY=0.5;entryDx=0;entryDy=0;" edge="1" parent="1" source="8RDtpiy4XNeRuSiZVMDt-78" target="8RDtpiy4XNeRuSiZVMDt-80">
          <mxGeometry width="50" height="50" relative="1" as="geometry">
            <mxPoint x="1100.48" y="517.04" as="sourcePoint" />
            <mxPoint x="980" y="310" as="targetPoint" />
          </mxGeometry>
        </mxCell>
        <mxCell id="8RDtpiy4XNeRuSiZVMDt-93" value="" style="endArrow=none;html=1;exitX=0;exitY=0.5;exitDx=0;exitDy=0;entryX=1;entryY=0.5;entryDx=0;entryDy=0;" edge="1" parent="1" source="8RDtpiy4XNeRuSiZVMDt-81" target="8RDtpiy4XNeRuSiZVMDt-80">
          <mxGeometry width="50" height="50" relative="1" as="geometry">
            <mxPoint x="1110.48" y="527.04" as="sourcePoint" />
            <mxPoint x="990" y="320" as="targetPoint" />
          </mxGeometry>
        </mxCell>
        <mxCell id="8RDtpiy4XNeRuSiZVMDt-94" value="" style="endArrow=none;html=1;exitX=0;exitY=0.5;exitDx=0;exitDy=0;entryX=1;entryY=0.5;entryDx=0;entryDy=0;" edge="1" parent="1" source="8RDtpiy4XNeRuSiZVMDt-82" target="8RDtpiy4XNeRuSiZVMDt-80">
          <mxGeometry width="50" height="50" relative="1" as="geometry">
            <mxPoint x="1120.48" y="537.04" as="sourcePoint" />
            <mxPoint x="1000" y="330" as="targetPoint" />
          </mxGeometry>
        </mxCell>
        <mxCell id="8RDtpiy4XNeRuSiZVMDt-95" value="" style="endArrow=none;html=1;exitX=1;exitY=0.5;exitDx=0;exitDy=0;entryX=0;entryY=0.5;entryDx=0;entryDy=0;" edge="1" parent="1" source="8RDtpiy4XNeRuSiZVMDt-80" target="8RDtpiy4XNeRuSiZVMDt-83">
          <mxGeometry width="50" height="50" relative="1" as="geometry">
            <mxPoint x="1210" y="300" as="sourcePoint" />
            <mxPoint x="1330" y="420" as="targetPoint" />
          </mxGeometry>
        </mxCell>
        <mxCell id="8RDtpiy4XNeRuSiZVMDt-96" value="" style="endArrow=none;html=1;exitX=1;exitY=0.5;exitDx=0;exitDy=0;entryX=1;entryY=0.5;entryDx=0;entryDy=0;" edge="1" parent="1" source="8RDtpiy4XNeRuSiZVMDt-78" target="8RDtpiy4XNeRuSiZVMDt-9">
          <mxGeometry width="50" height="50" relative="1" as="geometry">
            <mxPoint x="370" y="220" as="sourcePoint" />
            <mxPoint x="490" y="370" as="targetPoint" />
          </mxGeometry>
        </mxCell>
        <mxCell id="8RDtpiy4XNeRuSiZVMDt-97" value="" style="endArrow=none;html=1;exitX=1;exitY=0.5;exitDx=0;exitDy=0;entryX=1;entryY=0.5;entryDx=0;entryDy=0;" edge="1" parent="1" source="8RDtpiy4XNeRuSiZVMDt-9" target="8RDtpiy4XNeRuSiZVMDt-81">
          <mxGeometry width="50" height="50" relative="1" as="geometry">
            <mxPoint x="570" y="370" as="sourcePoint" />
            <mxPoint x="690" y="520" as="targetPoint" />
          </mxGeometry>
        </mxCell>
        <mxCell id="8RDtpiy4XNeRuSiZVMDt-98" value="" style="endArrow=none;html=1;exitX=1;exitY=0.5;exitDx=0;exitDy=0;entryX=1;entryY=0.5;entryDx=0;entryDy=0;" edge="1" parent="1" source="8RDtpiy4XNeRuSiZVMDt-82" target="8RDtpiy4XNeRuSiZVMDt-9">
          <mxGeometry width="50" height="50" relative="1" as="geometry">
            <mxPoint x="570" y="370" as="sourcePoint" />
            <mxPoint x="650" y="360" as="targetPoint" />
          </mxGeometry>
        </mxCell>
        <mxCell id="8RDtpiy4XNeRuSiZVMDt-99" value="" style="endArrow=none;html=1;exitX=1;exitY=0.5;exitDx=0;exitDy=0;entryX=1;entryY=0.5;entryDx=0;entryDy=0;" edge="1" parent="1" source="8RDtpiy4XNeRuSiZVMDt-9" target="8RDtpiy4XNeRuSiZVMDt-83">
          <mxGeometry width="50" height="50" relative="1" as="geometry">
            <mxPoint x="580" y="380" as="sourcePoint" />
            <mxPoint x="660" y="370" as="targetPoint" />
          </mxGeometry>
        </mxCell>
        <mxCell id="8RDtpiy4XNeRuSiZVMDt-100" value="" style="endArrow=none;html=1;exitX=1;exitY=0.5;exitDx=0;exitDy=0;entryX=1;entryY=0.5;entryDx=0;entryDy=0;" edge="1" parent="1" source="8RDtpiy4XNeRuSiZVMDt-23" target="8RDtpiy4XNeRuSiZVMDt-78">
          <mxGeometry width="50" height="50" relative="1" as="geometry">
            <mxPoint x="590" y="390" as="sourcePoint" />
            <mxPoint x="670" y="380" as="targetPoint" />
          </mxGeometry>
        </mxCell>
        <mxCell id="8RDtpiy4XNeRuSiZVMDt-101" value="" style="endArrow=none;html=1;exitX=1;exitY=0.5;exitDx=0;exitDy=0;entryX=1;entryY=0.5;entryDx=0;entryDy=0;" edge="1" parent="1" source="8RDtpiy4XNeRuSiZVMDt-23" target="8RDtpiy4XNeRuSiZVMDt-81">
          <mxGeometry width="50" height="50" relative="1" as="geometry">
            <mxPoint x="600" y="400" as="sourcePoint" />
            <mxPoint x="680" y="390" as="targetPoint" />
          </mxGeometry>
        </mxCell>
        <mxCell id="8RDtpiy4XNeRuSiZVMDt-102" value="" style="endArrow=none;html=1;exitX=1;exitY=0.5;exitDx=0;exitDy=0;entryX=1;entryY=0.5;entryDx=0;entryDy=0;" edge="1" parent="1" source="8RDtpiy4XNeRuSiZVMDt-23" target="8RDtpiy4XNeRuSiZVMDt-82">
          <mxGeometry width="50" height="50" relative="1" as="geometry">
            <mxPoint x="610" y="410" as="sourcePoint" />
            <mxPoint x="690" y="400" as="targetPoint" />
          </mxGeometry>
        </mxCell>
        <mxCell id="8RDtpiy4XNeRuSiZVMDt-103" value="" style="endArrow=none;html=1;exitX=1;exitY=0.5;exitDx=0;exitDy=0;entryX=1;entryY=0.5;entryDx=0;entryDy=0;" edge="1" parent="1" source="8RDtpiy4XNeRuSiZVMDt-23" target="8RDtpiy4XNeRuSiZVMDt-83">
          <mxGeometry width="50" height="50" relative="1" as="geometry">
            <mxPoint x="620" y="420" as="sourcePoint" />
            <mxPoint x="700" y="410" as="targetPoint" />
          </mxGeometry>
        </mxCell>
      </root>
    </mxGraphModel>
  </diagram>
</mxfile>
